<svg width="139" height="76" viewBox="0 0 139 76" fill="none" xmlns="http://www.w3.org/2000/svg">
<path d="M134.78 0.882568C136.056 0.356242 137.518 0.964892 138.045 2.24097C138.571 3.51719 137.964 4.97901 136.688 5.50562C130.577 8.02603 124.434 10.8775 118.18 13.781C113.558 15.9266 108.876 18.0991 104.144 20.1658C104.252 20.5038 104.338 20.8481 104.396 21.198C104.64 22.6483 104.419 24.1429 103.596 25.5339C102.907 26.6974 101.867 27.6688 100.577 28.4871C101.585 30.39 101.838 32.7467 101.396 34.8201C100.91 37.0936 99.4525 39.5184 96.6123 40.3923C93.3458 41.3973 90.0662 40.5539 87.376 39.4343C85.2105 38.5331 83.0344 37.2694 81.3223 36.3025C80.9503 37.0333 80.3544 37.661 79.501 38.0134C80.4645 44.0822 78.7457 50.4887 75.9258 55.4802C69.764 66.3867 59.0765 72.7082 47.5645 74.8542C36.0743 76.9962 23.5816 75.0226 13.5088 69.1531C5.69261 64.5984 0.560382 57.372 0.754883 47.8171C0.949832 38.2517 6.40354 30.75 12.498 24.7869C31.3618 6.33009 61.6895 -2.508 87.2744 6.6814C89.7683 7.57713 95.8014 10.6357 99.9287 14.3484C100.453 14.8196 100.976 15.3298 101.474 15.8728C106.362 13.7516 111.218 11.5005 116.074 9.24585C122.31 6.35076 128.553 3.45151 134.78 0.882568ZM85.585 11.3865C62.0614 2.93742 33.6964 11.0405 15.9941 28.3611C10.2306 34.0004 5.90894 40.3176 5.75391 47.9187C5.60352 55.3064 9.44891 61.001 16.0264 64.8337C25.0128 70.0701 36.2789 71.8713 46.6484 69.9382C56.996 68.0092 66.2698 62.4058 71.5723 53.0203C74.3963 48.0213 75.6086 42.0277 74.1348 36.9431C73.8928 36.8186 73.5394 36.6078 73.252 36.4353C73.1384 36.6656 72.9952 36.9022 72.8066 37.1277C72.1347 37.9311 71.1832 38.3132 70.2031 38.3132C68.0325 38.3131 65.8434 37.1731 64.2559 36.2302C63.4017 35.7229 62.5712 35.1759 61.8535 34.7058C61.1055 34.2158 60.5091 33.8279 60.0186 33.5544C59.7602 33.4105 59.4978 33.2258 59.3125 33.0925C59.112 32.9483 58.8726 32.77 58.665 32.6169C58.6198 32.5836 58.5737 32.5518 58.5293 32.5193C58.1861 32.527 57.5963 32.5354 56.876 32.5212C56.874 32.5212 56.8721 32.5222 56.8701 32.5222C56.8624 32.5222 56.8544 32.5203 56.8467 32.5203C55.8153 32.4993 54.522 32.4366 53.3027 32.2683C52.1617 32.1108 50.5869 31.8063 49.4521 31.0349C48.8297 30.6117 48.0176 29.8232 47.8438 28.5652C47.6732 27.3294 48.214 26.3167 48.7402 25.6501C51.2671 22.4498 55.6101 21.6403 58.6367 21.6755C63.1723 21.7283 68.1429 22.9594 72.1055 25.7898C80.3384 24.0806 88.4369 21.2815 96.4863 17.9792C92.925 14.8139 87.5683 12.0989 85.585 11.3865ZM99.1621 22.2888C91.7215 25.3714 84.1026 28.1017 76.2812 29.9763C76.6871 30.5529 77.0535 31.1431 77.3828 31.7439C77.3995 31.713 77.4163 31.6812 77.4346 31.6501C77.8259 30.9865 78.5071 30.4629 79.3848 30.3289C80.0523 30.227 80.6111 30.3916 80.8662 30.4753C81.399 30.6503 82.0254 30.9817 82.6123 31.2986C84.822 32.4919 86.9473 33.8402 89.2969 34.8181C91.6125 35.7818 93.5487 36.1044 95.1426 35.614C95.7251 35.4346 96.2675 34.8883 96.5049 33.7761C96.7487 32.6332 96.5276 31.407 96.0684 30.6667C95.9463 30.4701 95.8344 30.2981 95.7256 30.1316C95.6258 29.9789 95.5031 29.7917 95.3994 29.6199C95.2878 29.4352 94.7202 28.5693 94.8457 27.4656C94.9941 26.1636 95.9384 25.4757 96.2402 25.2615C96.6019 25.0048 97.0992 24.731 97.5049 24.5017C98.588 23.8894 99.0784 23.3484 99.293 22.9861C99.4561 22.7104 99.5122 22.4549 99.4824 22.1531C99.3754 22.1976 99.2692 22.2445 99.1621 22.2888ZM69.3066 31.4001C68.41 31.5496 67.5105 31.6854 66.6084 31.8083C66.6756 31.849 66.7423 31.8905 66.8096 31.9304C67.5283 32.3573 68.1523 32.6768 68.6807 32.9021C68.7363 32.4099 68.9232 31.8636 69.3066 31.4001ZM56.3916 26.8562C55.7423 26.9753 55.1311 27.1535 54.583 27.3855C54.8547 27.4137 55.1305 27.4351 55.4043 27.4539C55.7058 27.1775 56.0451 26.9829 56.3916 26.8562ZM58.5781 26.6755C58.3407 26.6728 58.1043 26.6781 57.8701 26.6892C58.2746 26.7349 58.619 26.8414 58.8652 26.9324C59.2606 27.0785 59.6286 27.2693 59.9375 27.448C60.9773 27.3849 62.0142 27.2992 63.0488 27.1951C61.595 26.8659 60.0859 26.6931 58.5781 26.6755ZM53.5967 10.8464C54.3395 10.7635 55.5209 10.7008 56.668 11.0671C57.978 11.4856 59.3022 12.512 59.6787 14.3933C59.8994 15.4969 59.7427 16.7147 58.9023 17.7009C58.1641 18.5671 57.1863 18.9019 56.543 19.0505C55.6373 19.2597 54.5385 19.2576 53.8955 19.2439L53.4287 19.2341L53.1729 19.2205C52.829 19.1855 52.5061 19.0806 52.2178 18.9207C51.5497 18.867 50.7997 18.617 50.1758 18.0232C49.4351 17.318 49.1445 16.3887 49.1445 15.5281C49.1446 14.1904 49.5595 12.8612 50.6992 11.9294C51.6855 11.1234 52.8641 10.9282 53.5967 10.8464Z" fill="black"/>
</svg>
