<svg width="135" height="73" viewBox="0 0 135 73" fill="none" xmlns="http://www.w3.org/2000/svg">
<path d="M133.353 0.269287C133.863 0.0589979 134.448 0.303048 134.658 0.813232C134.868 1.32363 134.626 1.90828 134.115 2.1189C127.97 4.65385 121.797 7.51869 115.548 10.4197C110.478 12.7735 105.357 15.1479 100.183 17.3787C100.542 18.0528 100.8 18.7446 100.918 19.447C101.106 20.5699 100.937 21.7026 100.305 22.7703C99.6839 23.8185 98.6543 24.7416 97.2266 25.5486C96.8995 25.7335 96.6667 25.8648 96.4961 25.9675C96.5418 26.0388 96.5937 26.1218 96.6562 26.2175C96.766 26.3855 96.8969 26.5864 97.042 26.8201C98.0369 28.423 98.3359 30.5938 97.9277 32.5066C97.5168 34.4317 96.3346 36.2931 94.1719 36.9587C91.4071 37.8094 88.53 37.1224 85.9521 36.0496C83.3881 34.9824 80.8811 33.4209 78.9492 32.3777C78.7355 32.2623 78.5548 32.1685 78.4033 32.0906C78.3604 32.3925 78.2944 32.7568 78.1699 33.1658C77.9573 33.8644 77.5265 34.4036 76.8721 34.6521C76.4814 34.8003 76.0824 34.8149 75.7217 34.7732C77.1827 40.8214 75.5787 47.5048 72.6201 52.7419C66.7162 63.1921 56.4527 69.2986 45.29 71.3796C34.136 73.4589 22.0106 71.5368 12.2637 65.8572C4.81924 61.5191 0.0736187 54.752 0.254883 45.8474C0.437931 36.8713 5.55167 29.7251 11.5469 23.8591C30.0622 5.74316 59.8011 -2.87477 84.7676 6.09253C87.1136 6.93517 92.9675 9.90403 96.9248 13.4636C97.7 14.161 98.4299 14.908 99.0527 15.6882C104.309 13.4298 109.519 11.0145 114.706 8.6062C120.948 5.7086 127.16 2.82364 133.353 0.269287ZM84.0918 7.97534C59.9498 -0.69585 30.996 7.6273 12.9453 25.2888C7.08241 31.0254 2.42183 37.6979 2.25488 45.8884C2.09126 53.9262 6.32153 60.0803 13.2705 64.1296C22.5829 69.556 34.2171 71.4085 44.9229 69.4128C55.6197 67.4187 65.3176 61.6003 70.8779 51.7585C73.9253 46.3644 75.3037 39.6303 73.3896 33.906C73.1691 33.7905 72.9823 33.6907 72.8506 33.6257C72.6328 33.5184 72.2288 33.2708 71.8477 33.0437C71.431 32.7955 70.9596 32.5208 70.5176 32.2957C70.4014 32.2365 70.2936 32.1833 70.1943 32.1375C70.1977 32.3938 70.1914 32.6865 70.1484 32.9744C70.0959 33.3261 69.9748 33.7836 69.6553 34.1658C69.2968 34.5941 68.7853 34.8132 68.2031 34.8132C66.4851 34.8131 64.6149 33.886 63.0225 32.9402C62.2021 32.453 61.4001 31.9254 60.6758 31.4509C59.9392 30.9684 59.2946 30.5495 58.748 30.2449C58.4359 30.0708 57.9656 29.7121 57.5557 29.4099C57.3693 29.2725 57.1781 29.1354 56.9893 29.0027C56.9181 29.006 56.8466 29.0113 56.7754 29.0144C56.6682 29.019 55.9081 29.0423 54.875 29.0212C54.8734 29.0212 54.8717 29.0222 54.8701 29.0222C54.8623 29.0222 54.8544 29.0204 54.8467 29.0203C53.8674 28.9996 52.648 28.9394 51.5078 28.782C50.3706 28.625 49.1138 28.3497 48.2959 27.7937C47.865 27.5007 47.4239 27.0385 47.3301 26.3601C47.2377 25.6906 47.5216 25.082 47.918 24.5798C50.0113 21.9287 53.7579 21.1423 56.6191 21.1755C61.152 21.2283 66.0214 22.5174 69.7451 25.3923C78.6007 23.6179 87.2665 20.6 95.8223 17.0554C96.2595 16.8743 96.6953 16.6883 97.1318 16.5046C96.6861 15.9932 96.1685 15.4732 95.5879 14.9509C91.8575 11.5953 86.2411 8.74739 84.0918 7.97534ZM96.5879 18.9031C88.4364 22.2802 80.1194 25.2114 71.5889 27.0515C72.0349 27.5202 72.4565 28.0188 72.8467 28.5496C73.7596 29.7915 74.4717 31.1093 75.0039 32.4763C75.2414 32.5856 75.4762 32.679 75.709 32.74C76.0109 32.819 76.1381 32.7911 76.1621 32.782C76.1624 32.782 76.1614 32.7848 76.168 32.7771C76.1791 32.7641 76.2177 32.7122 76.2568 32.5837C76.3818 32.173 76.4281 31.8223 76.4619 31.5134C76.4772 31.3733 76.4947 31.1894 76.5186 31.0398C76.5405 30.9023 76.5873 30.6499 76.7275 30.4119C76.9077 30.1066 77.2127 29.8731 77.6113 29.8123C77.926 29.7643 78.2126 29.8391 78.3984 29.9001C78.7792 30.0252 79.2816 30.2843 79.8994 30.6179C81.9902 31.7469 84.2791 33.1867 86.7207 34.2029C89.1485 35.2133 91.4874 35.6922 93.583 35.0476C94.8427 34.6599 95.6598 33.5501 95.9717 32.0896C96.286 30.6166 96.0317 28.9847 95.3428 27.8748C95.2109 27.6623 95.0906 27.4784 94.9814 27.3113C94.8758 27.1496 94.7702 26.989 94.6836 26.8455C94.5489 26.6223 94.2761 26.169 94.3369 25.6345C94.4071 25.0216 94.8515 24.6675 95.1084 24.4851C95.3894 24.2857 95.794 24.0613 96.2432 23.8074C97.4739 23.1117 98.1954 22.407 98.584 21.7507C98.9608 21.1141 99.0605 20.4644 98.9453 19.7781C98.8591 19.2651 98.6494 18.7258 98.334 18.1677C97.7522 18.4137 97.171 18.6615 96.5879 18.9031ZM69.2051 27.5359C66.2368 28.1008 63.2425 28.5269 60.2197 28.7878C60.7096 29.0836 61.2369 29.4279 61.7715 29.7781C62.5046 30.2583 63.2678 30.76 64.043 31.2205C65.6133 32.1531 67.0362 32.7875 68.1426 32.8103C68.1512 32.7784 68.1615 32.7348 68.1699 32.6785C68.1968 32.498 68.2001 32.273 68.1914 32.0085C68.1845 31.797 68.1631 31.4445 68.1631 31.2273C68.1632 30.8064 68.3441 30.3081 68.8564 30.0457C69.249 29.8447 69.6568 29.8865 69.8848 29.9265C70.3792 30.0134 70.9486 30.2704 71.4258 30.5134C71.5979 30.6011 71.7714 30.6953 71.9424 30.7898C71.7233 30.4313 71.4884 30.0784 71.2354 29.7341C70.6387 28.9225 69.9555 28.1906 69.2051 27.5359ZM56.5957 23.1755C53.9547 23.1448 51.0025 23.9001 49.4873 25.8191C49.3921 25.9397 49.3492 26.0225 49.3291 26.0701C49.3486 26.0878 49.3777 26.1117 49.4199 26.1404C49.8155 26.4092 50.6492 26.6442 51.7812 26.8005C52.5439 26.9058 53.3532 26.9631 54.0898 26.9949C54.1213 26.934 54.156 26.8733 54.1963 26.8152C54.4901 26.3917 54.9252 26.2021 55.3418 26.1707C55.7141 26.1426 56.0676 26.2372 56.3447 26.3396C56.6345 26.4467 56.9252 26.595 57.1953 26.7517C57.3142 26.8207 57.4334 26.8954 57.5527 26.9714C60.7118 26.7992 63.8431 26.4355 66.9502 25.9099C63.8988 24.0945 60.1937 23.2174 56.5957 23.1755ZM51.7637 10.3376C52.4432 10.2618 53.3701 10.227 54.2119 10.4958C55.119 10.7856 55.9604 11.451 56.208 12.6882C56.3606 13.4516 56.2369 14.1694 55.7607 14.7283C55.3253 15.2391 54.7142 15.471 54.2051 15.5886C53.4649 15.7595 52.5742 15.7555 51.9492 15.7429L51.4287 15.7341L51.3262 15.7283C51.0775 15.703 50.8562 15.5865 50.6953 15.4128C50.6325 15.4252 50.5674 15.4324 50.501 15.4324C50.0692 15.4323 49.5892 15.298 49.21 14.9373C48.82 14.5659 48.6445 14.058 48.6445 13.5281C48.6446 12.4989 48.9537 11.6585 49.6484 11.0906C50.2818 10.573 51.0883 10.413 51.7637 10.3376ZM53.6035 12.4011C53.1685 12.2622 52.5804 12.2585 51.9854 12.325C51.3864 12.3918 51.0769 12.5064 50.9141 12.6394C50.8174 12.7185 50.6621 12.8933 50.6475 13.4441C50.8775 13.4778 51.0812 13.5903 51.2324 13.7527C51.2957 13.7401 51.3617 13.7341 51.4287 13.7341L52.0215 13.7419C52.6225 13.7531 53.2357 13.7602 53.7549 13.6404C54.0852 13.5641 54.2065 13.4677 54.2383 13.4304C54.2468 13.4204 54.2559 13.4081 54.2627 13.3757C54.2709 13.3363 54.28 13.2445 54.2471 13.0798C54.1713 12.7017 53.973 12.5192 53.6035 12.4011Z" fill="black"/>
</svg>
